<svg xmlns="http://www.w3.org/2000/svg" width="40" height="40" viewBox="0 0 40 40">
    <g fill="none" fill-rule="evenodd">
        <path fill="#FFF" d="M-190-1657h1440V161H-190z"/>
        <path d="M0 0h40v40H0z"/>
        <path fill="#F53465" d="M19.985.513C9.23.513.513 9.23.513 19.985c0 10.748 8.718 19.466 19.472 19.466 10.748 0 19.466-8.718 19.466-19.466C39.451 9.23 30.733.513 19.985.513zm9.471 27.702c0 .575-.282.95-.85.95h-4.79v-7.18h2.435l.37-3.077h-2.806v-1.6c0-.82.22-1.477 1.4-1.477h1.677v-2.446c-.513-.036-1.307-.113-2.348-.113-2.165 0-3.806 1.323-3.806 3.754v1.882h-2.564v3.077h2.564v7.18h-8.882c-.574 0-.861-.375-.861-.95V11.467c0-.575.287-1.277.861-1.277h16.75c.568 0 .85.702.85 1.277v16.748z"/>
    </g>
</svg>
