<svg xmlns="http://www.w3.org/2000/svg" width="40" height="40" viewBox="0 0 40 40">
    <g fill="none" fill-rule="evenodd">
        <path fill="#FFF" d="M-246-1657h1440V161H-246z"/>
        <path d="M0 0h40v40H0z"/>
        <path fill="#F53465" d="M19.983 39.452c-10.753 0-19.47-8.717-19.47-19.47C.513 9.23 9.23.513 19.983.513c10.752 0 19.47 8.718 19.47 19.47 0 10.753-8.718 19.47-19.47 19.47z"/>
        <path fill="#FFF" d="M11.246 16.797h3.687V28.48h-3.687V16.797zm13.762-.112c2.62 0 4.68 1.68 4.68 5.3v6.495h-4.182v-6.046c0-1.582-.654-2.663-2.092-2.663-1.1 0-1.712.73-1.997 1.432-.106.252-.09.604-.09.955v6.322h-4.142s.053-10.71 0-11.683h4.142v1.834c.245-.802 1.568-1.946 3.68-1.946zm-11.986-5.403c1.36 0 2.196.872 2.223 2.025 0 1.132-.863 2.028-2.25 2.028h-.026c-1.334 0-2.2-.892-2.2-2.025 0-1.154.891-2.028 2.253-2.028z"/>
    </g>
</svg>
