<svg xmlns="http://www.w3.org/2000/svg" width="40" height="40" viewBox="0 0 40 40">
    <g fill="none" fill-rule="evenodd">
        <path fill="#FFF" d="M-302-1657h1440V161H-302z"/>
        <path d="M0 0h40v40H0z"/>
        <path fill="#F53465" d="M39.452 19.983c0 10.752-8.717 19.47-19.47 19.47-10.752 0-19.47-8.718-19.47-19.47C.513 9.23 9.23.513 19.983.513c10.753 0 19.47 8.717 19.47 19.47"/>
        <path fill="#FFF" d="M28.933 12.09a7.747 7.747 0 0 1-2.504.98 3.887 3.887 0 0 0-2.876-1.275c-2.174 0-3.939 1.81-3.939 4.04 0 .317.034.624.102.92-3.275-.168-6.178-1.775-8.123-4.223a4.113 4.113 0 0 0-.533 2.034c0 1.401.695 2.638 1.753 3.363a3.863 3.863 0 0 1-1.786-.504v.05c0 1.958 1.359 3.592 3.163 3.961-.33.095-.68.142-1.039.142a3.84 3.84 0 0 1-.741-.07c.501 1.604 1.956 2.773 3.68 2.803a7.779 7.779 0 0 1-5.834 1.676 10.969 10.969 0 0 0 6.04 1.814c7.25 0 11.212-6.156 11.212-11.496 0-.176-.003-.352-.01-.524a8.092 8.092 0 0 0 1.965-2.091 7.718 7.718 0 0 1-2.262.636 4.034 4.034 0 0 0 1.732-2.235"/>
    </g>
</svg>
